<svg xmlns="http://www.w3.org/2000/svg" viewBox="0 0 100 100">
  <rect width="100" height="100" rx="20" fill="#2563eb"/>
  <path d="M30 35 h40 v-10 a10 10 0 0 0 -10 -10 h-20 a10 10 0 0 0 -10 10 v10 z m-5 0 h50 a5 5 0 0 1 5 5 v40 a5 5 0 0 1 -5 5 h-50 a5 5 0 0 1 -5 -5 v-40 a5 5 0 0 1 5 -5 z" fill="none" stroke="white" stroke-width="6" stroke-linecap="round" stroke-linejoin="round"/>
  <rect x="32" y="35" width="36" height="40" rx="2" fill="none" stroke="white" stroke-width="4"/>
  <line x1="50" y1="35" x2="50" y2="75" stroke="white" stroke-width="4"/>
</svg>
